<svg
  xmlns="http://www.w3.org/2000/svg"
  width="982"
  height="194"
  viewBox="0 0 982 194"
  version="1.1"
>
  <path
    d="M 89.424 2.903 C 78.450 5.661, 72 14.184, 72 25.928 C 72 32.009, 74.905 37.498, 81.568 44.005 L 87.194 49.500 86.506 44.269 C 84.729 30.762, 91.321 22.392, 98.076 29.580 C 100.183 31.823, 100.545 33.293, 100.842 40.830 C 101.030 45.598, 101.635 49.950, 102.187 50.500 C 103.776 52.085, 116.792 37.385, 118.125 32.500 C 121.114 21.539, 114.928 8.800, 104.500 4.444 C 100.365 2.716, 93.116 1.975, 89.424 2.903 M 482.460 25.250 C 482.197 25.938, 482.102 58, 482.248 96.500 L 482.514 166.500 482.757 95.794 L 483 25.088 490.250 24.743 L 497.500 24.397 490.219 24.199 C 485.160 24.061, 482.791 24.382, 482.460 25.250 M 686.459 25.250 C 686.197 25.938, 686.102 55.300, 686.248 90.500 L 686.515 154.500 686.758 89.794 L 687 25.088 694.250 24.743 L 701.500 24.397 694.219 24.199 C 689.161 24.061, 686.791 24.382, 686.459 25.250 M 734.250 24.728 C 736.313 24.944, 739.688 24.944, 741.750 24.728 C 743.813 24.513, 742.125 24.336, 738 24.336 C 733.875 24.336, 732.188 24.513, 734.250 24.728 M 898.460 25.250 C 898.197 25.938, 898.102 58, 898.248 96.500 L 898.514 166.500 898.757 95.794 L 899 25.088 906.250 24.743 L 913.500 24.397 906.219 24.199 C 901.160 24.061, 898.791 24.382, 898.460 25.250 M 232.473 98 C 232.473 135.675, 232.597 151.087, 232.750 132.250 C 232.902 113.412, 232.902 82.587, 232.750 63.750 C 232.597 44.912, 232.473 60.325, 232.473 98 M 347.349 73 C 347.349 77.675, 347.522 79.587, 347.732 77.250 C 347.943 74.912, 347.943 71.087, 347.732 68.750 C 347.522 66.412, 347.349 68.325, 347.349 73 M 775.464 115.500 C 775.464 143.550, 775.592 155.169, 775.749 141.320 C 775.906 127.471, 775.906 104.521, 775.749 90.320 C 775.593 76.119, 775.465 87.450, 775.464 115.500 M 17.500 72.504 C 15.266 73.296, 11.452 76.062, 8.860 78.770 C 5.162 82.636, 3.988 84.743, 3.072 89.156 C 1.017 99.053, 4.673 108.269, 13.041 114.284 C 19.903 119.216, 31.026 119.834, 37.430 115.638 C 41.016 113.288, 53 101.933, 53 100.885 C 53 100.398, 49.962 99.980, 46.250 99.956 C 32.769 99.869, 26.045 96.866, 27.564 91.611 C 28.844 87.182, 31.639 86, 40.827 86 L 49.432 86 43.966 80.386 C 35.255 71.440, 27.244 69.054, 17.500 72.504 M 156.946 78.879 C 154.501 80.463, 150.096 84.231, 147.158 87.253 L 141.817 92.748 151.633 93.484 C 162.926 94.331, 165.434 95.074, 167.023 98.043 C 168.554 100.904, 166.722 105.350, 163.385 106.870 C 162.022 107.492, 157.440 108.016, 153.203 108.036 L 145.500 108.073 151.454 113.683 C 161.984 123.605, 170.332 125.222, 180.985 119.403 C 193.416 112.614, 195.533 93.868, 185.136 82.658 C 180.734 77.913, 175.878 76, 168.236 76 C 162.391 76, 160.742 76.420, 156.946 78.879 M 965.450 132 C 965.450 150.975, 965.584 158.738, 965.748 149.250 C 965.913 139.762, 965.913 124.237, 965.748 114.750 C 965.584 105.263, 965.450 113.025, 965.450 132 M 471.448 133 C 471.448 151.425, 471.583 158.963, 471.748 149.750 C 471.913 140.537, 471.913 125.463, 471.748 116.250 C 471.583 107.037, 471.448 114.575, 471.448 133 M 394.446 134.500 C 394.447 152.100, 394.583 159.159, 394.749 150.187 C 394.914 141.215, 394.914 126.815, 394.748 118.187 C 394.581 109.559, 394.446 116.900, 394.446 134.500 M 348.443 136.500 C 348.443 153, 348.580 159.890, 348.748 151.812 C 348.915 143.733, 348.916 130.233, 348.748 121.812 C 348.581 113.390, 348.444 120, 348.443 136.500 M 497.310 114.500 C 497.315 117.800, 497.502 119.029, 497.725 117.232 C 497.947 115.435, 497.943 112.735, 497.715 111.232 C 497.486 109.729, 497.304 111.200, 497.310 114.500 M 85.142 149.357 C 77.394 157.157, 76.071 160.015, 76.024 169.054 C 75.962 180.778, 87.211 192, 99.025 192 C 107.245 192, 111.690 190.120, 116.871 184.451 C 121.764 179.097, 123 175.981, 123 169 C 123 161.433, 121.829 158.836, 115.377 152.094 L 109.067 145.500 109.033 152.282 C 108.989 161.307, 107.166 165.585, 102.972 166.506 C 100.313 167.090, 99.314 166.768, 97.189 164.643 C 94.878 162.333, 94.578 161.138, 94.204 152.787 C 93.975 147.679, 93.481 143.168, 93.106 142.763 C 92.732 142.357, 89.148 145.324, 85.142 149.357 M 322.336 159 C 322.336 163.125, 322.513 164.813, 322.728 162.750 C 322.944 160.688, 322.944 157.313, 322.728 155.250 C 322.513 153.188, 322.336 154.875, 322.336 159 M 716.328 159.500 C 716.333 163.350, 716.513 164.802, 716.730 162.728 C 716.946 160.653, 716.943 157.503, 716.722 155.728 C 716.501 153.952, 716.324 155.650, 716.328 159.500"
    stroke="none"
    fill="#415db4"
    fill-rule="evenodd"
  />
  <path
    d="M 913.999 52.299 L 914.498 80.500 914.765 53.066 C 914.912 37.978, 914.688 25.287, 914.266 24.865 C 913.845 24.443, 913.724 36.788, 913.999 52.299 M 321.336 37 C 321.336 41.125, 321.513 42.813, 321.728 40.750 C 321.944 38.688, 321.944 35.313, 321.728 33.250 C 321.513 31.188, 321.336 32.875, 321.336 37 M 42.216 42.283 L 31.961 52.573 49.731 70.332 L 67.500 88.092 77.216 77.902 L 86.932 67.713 85.034 65.106 C 83.990 63.673, 76.236 55.636, 67.803 47.247 L 52.470 31.994 42.216 42.283 M 120.737 49.763 C 111.532 58.980, 104 66.974, 104 67.527 C 104 68.080, 109.068 73.587, 115.263 79.764 L 126.526 90.995 143.766 73.735 L 161.005 56.474 149.240 44.739 L 137.474 33.004 120.737 49.763 M 249.426 65.500 C 249.427 77.600, 249.571 82.413, 249.747 76.195 C 249.923 69.977, 249.922 60.077, 249.746 54.195 C 249.569 48.313, 249.425 53.400, 249.426 65.500 M 791.464 115.500 C 791.464 143.550, 791.592 155.169, 791.749 141.320 C 791.906 127.471, 791.906 104.521, 791.749 90.320 C 791.593 76.119, 791.465 87.450, 791.464 115.500 M 165.250 75.716 C 166.762 75.945, 169.238 75.945, 170.750 75.716 C 172.262 75.487, 171.025 75.300, 168 75.300 C 164.975 75.300, 163.738 75.487, 165.250 75.716 M 89.297 81.782 C 83.564 86.980, 77 94.649, 77 96.149 C 77 98.103, 96.311 117, 98.307 117 C 100.693 117, 117 100.856, 117 98.494 C 117 96.577, 97.647 76.987, 95.799 77.032 C 95.084 77.049, 92.159 79.187, 89.297 81.782 M 312.336 94 C 312.336 98.125, 312.513 99.813, 312.728 97.750 C 312.944 95.688, 312.944 92.313, 312.728 90.250 C 312.513 88.188, 312.336 89.875, 312.336 94 M 142.200 91.200 C 139.975 93.425, 140.976 94.001, 146.750 93.815 L 152.500 93.630 147.173 93.260 C 142.663 92.947, 142.030 92.669, 143.046 91.445 C 144.495 89.699, 143.879 89.521, 142.200 91.200 M 981.450 132 C 981.450 150.975, 981.584 158.738, 981.748 149.250 C 981.913 139.762, 981.913 124.237, 981.748 114.750 C 981.584 105.263, 981.450 113.025, 981.450 132 M 249.436 126.500 C 249.436 140.800, 249.577 146.511, 249.748 139.191 C 249.919 131.871, 249.918 120.171, 249.747 113.191 C 249.575 106.211, 249.435 112.200, 249.436 126.500 M 50.074 120.426 L 33.671 136.851 45.022 148.979 L 56.372 161.107 73.186 144.314 C 82.434 135.079, 90 127.174, 90 126.748 C 90 125.874, 67.928 104, 67.046 104 C 66.733 104, 59.096 111.392, 50.074 120.426 M 914.445 135.500 C 914.444 152.550, 914.581 159.666, 914.748 151.312 C 914.915 142.959, 914.915 129.009, 914.748 120.312 C 914.582 111.616, 914.445 118.450, 914.445 135.500 M 116.499 117.051 L 106.624 127.103 124.048 144.548 L 141.472 161.994 151.740 151.761 L 162.007 141.528 144.764 124.264 C 135.281 114.769, 127.263 107, 126.948 107 C 126.632 107, 121.931 111.523, 116.499 117.051 M 572.310 114.500 C 572.315 117.800, 572.502 119.029, 572.725 117.232 C 572.947 115.435, 572.943 112.735, 572.715 111.232 C 572.486 109.729, 572.304 111.200, 572.310 114.500 M 760.328 159.500 C 760.333 163.350, 760.513 164.802, 760.730 162.728 C 760.946 160.653, 760.943 157.503, 760.722 155.728 C 760.501 153.952, 760.324 155.650, 760.328 159.500"
    stroke="none"
    fill="#509fdd"
    fill-rule="evenodd"
  />
  <path
    d="M 776.898 23.270 C 772.341 26.314, 769.753 31.492, 770.552 35.966 C 771.896 43.485, 777.653 47.712, 785.175 46.703 C 797.479 45.053, 799.931 27.212, 788.510 22.440 C 783.705 20.432, 780.839 20.637, 776.898 23.270 M 483 95.546 L 483 166.091 489.750 165.796 L 496.500 165.500 497 157 L 497.500 148.500 499.185 151.575 C 501.566 155.919, 508.374 161.803, 513.624 164.053 C 529.604 170.903, 545.981 168.098, 557.593 156.522 C 576.462 137.711, 576.902 94.679, 558.436 74.140 C 543.347 57.357, 513.871 58.391, 501.004 76.154 L 498 80.300 498 52.650 L 498 25 490.500 25 L 483 25 483 95.546 M 687 90.923 L 687 156.847 689.703 160.059 C 693.557 164.640, 697.625 166, 707.468 166 L 716 166 716 159.500 L 716 153 710.200 153 C 707.010 153, 703.860 152.460, 703.200 151.800 C 702.292 150.892, 702 135.311, 702 87.800 L 702 25 694.500 25 L 687 25 687 90.923 M 730.222 90.750 C 730.535 164.887, 729.975 159.873, 738.399 163.951 C 741.669 165.534, 744.606 166, 751.316 166 L 760 166 760 159.546 L 760 153.091 753.250 152.796 L 746.500 152.500 746.243 88.750 L 745.985 25 737.965 25 L 729.945 25 730.222 90.750 M 899 95.500 L 899 166 906.500 166 L 914 166 914 135.549 C 914 116.834, 914.433 103.056, 915.123 99.799 C 918.129 85.617, 927.141 76.563, 939.523 75.285 C 951.965 74.001, 958.682 77.405, 963.118 87.243 C 965.451 92.417, 965.494 93.080, 965.820 129.250 L 966.152 166 973.576 166 L 981 166 981 131.136 C 981 111.900, 980.548 93.891, 979.992 90.960 C 977.722 78.987, 971.095 69.703, 961.458 64.992 C 957.236 62.929, 955.015 62.565, 946.500 62.540 C 937.738 62.514, 935.819 62.835, 931 65.133 C 925.339 67.832, 920.078 72.243, 916.249 77.500 L 914.063 80.500 914.032 52.750 L 914 25 906.500 25 L 899 25 899 95.500 M 233 98 L 233 166 277.500 166 L 322 166 322 159 L 322 152 285.500 152 L 249 152 249 126.500 L 249 101 280.500 101 L 312 101 312 94 L 312 87 280.500 87 L 249 87 249 65.500 L 249 44 285 44 L 321 44 321 37 L 321 30 277 30 L 233 30 233 98 M 370.734 63.027 C 362.677 65.056, 355.180 70.469, 349.306 78.500 L 347.111 81.500 347.056 72.704 L 347 63.909 340.250 64.204 L 333.500 64.500 333.241 115.250 L 332.982 166 340.407 166 L 347.832 166 348.241 133.750 C 348.693 98.138, 349.071 95.582, 355.259 86.378 C 357.092 83.652, 360.638 80.242, 363.421 78.529 C 367.712 75.888, 369.271 75.500, 375.594 75.500 C 384.270 75.500, 387.312 77.237, 390.799 84.184 C 394.080 90.719, 394.962 101.696, 394.982 136.250 L 395 166 402.500 166 L 410 166 410 135.549 C 410 103.472, 410.564 97.812, 414.538 90 C 422.009 75.314, 440.492 70.128, 449.702 80.135 C 455.322 86.239, 455.474 87.437, 455.815 128.250 L 456.130 166 463.618 166 L 471.107 166 470.781 126.750 C 470.480 90.529, 470.304 87.131, 468.498 82.714 C 465.270 74.816, 460.098 68.870, 453.539 65.518 C 448.374 62.877, 446.627 62.506, 439.568 62.549 C 433.558 62.586, 430.297 63.141, 426.783 64.728 C 421.420 67.150, 413.030 74.597, 409.829 79.777 L 407.672 83.268 405.331 78.663 C 402.298 72.693, 396.782 67.234, 391.366 64.838 C 386.277 62.587, 376.047 61.689, 370.734 63.027 M 618.045 63.030 C 610.954 64.520, 602.910 68.974, 597.435 74.442 C 578.330 93.524, 578.050 135.545, 596.900 154.897 C 613.761 172.207, 646.804 171.935, 663.149 154.350 C 665.892 151.399, 672 142.131, 672 140.920 C 672 140.227, 657.929 134.700, 657.490 135.220 C 657.360 135.374, 656.455 137.075, 655.479 139 C 650.554 148.710, 642.986 153.910, 632.564 154.747 C 614.875 156.167, 602.391 144.604, 600.331 124.891 L 599.715 119 636.799 119 C 657.194 119, 674.064 118.662, 674.286 118.250 C 674.509 117.838, 674.340 113.450, 673.910 108.500 C 671.946 85.858, 662.064 70.781, 645.275 64.814 C 638.694 62.475, 624.967 61.575, 618.045 63.030 M 836.043 63.139 C 823.142 65.277, 813.284 72.774, 810.421 82.624 C 807.116 93.994, 810.719 104.976, 819.709 110.931 C 825.137 114.526, 829.781 116.016, 846.113 119.400 C 859.192 122.111, 862.621 123.573, 866.381 128.041 C 868.438 130.486, 869 132.221, 869 136.126 C 869 142.062, 867.324 145.631, 862.578 149.797 C 858.399 153.467, 853.529 154.987, 845.928 154.994 C 833.388 155.007, 824.328 148.747, 821.342 138.006 C 820.423 134.703, 819.183 132.028, 818.586 132.062 C 817.989 132.096, 814.575 132.690, 811 133.383 C 804.646 134.615, 804.507 134.709, 804.817 137.572 C 804.992 139.182, 806.288 143.080, 807.697 146.234 C 814.554 161.582, 833.667 170.205, 854.195 167.213 C 874.130 164.307, 885.355 152.882, 885.351 135.500 C 885.348 127.089, 883.639 122.872, 878.153 117.739 C 872.502 112.454, 866.229 109.922, 850.203 106.457 C 830.566 102.211, 825 98.466, 825 89.500 C 825 81.087, 831.593 75.979, 843.423 75.228 C 856.393 74.404, 863.168 78.075, 866.621 87.795 C 867.763 91.011, 869.048 92.987, 869.985 92.965 C 872.207 92.913, 884.027 90.307, 884.589 89.744 C 884.854 89.480, 884.151 86.806, 883.027 83.802 C 876.942 67.539, 858.479 59.419, 836.043 63.139 M 776 114.956 L 776 166 783.509 166 L 791.018 166 790.759 115.250 L 790.500 64.500 783.250 64.206 L 776 63.912 776 114.956 M 515.500 77.387 C 505.655 82.049, 499.833 91.495, 497.885 105.964 C 493.602 137.792, 511.091 160.702, 534.384 153.776 C 540.573 151.936, 549.182 143.010, 552.012 135.500 C 556.315 124.077, 555.842 102.796, 551.036 91.583 C 544.972 77.438, 528.928 71.028, 515.500 77.387 M 617.444 77.374 C 608.975 81.317, 602.705 90.572, 600.589 102.250 L 599.909 106 627.955 106 L 656 106 656 103.605 C 656 102.288, 655.061 98.170, 653.913 94.453 C 648.927 78.311, 632.227 70.490, 617.444 77.374"
    stroke="none"
    fill="#c2d8e5"
    fill-rule="evenodd"
  />
</svg>
