<svg
  xmlns="http://www.w3.org/2000/svg"
  width="1057"
  height="198"
  viewBox="0 0 1057 198"
  version="1.1"
>
  <path
    d="M 363.336 39 C 363.336 43.125, 363.513 44.813, 363.728 42.750 C 363.944 40.688, 363.944 37.313, 363.728 35.250 C 363.513 33.188, 363.336 34.875, 363.336 39 M 44.216 44.283 L 33.961 54.573 51.731 72.332 L 69.500 90.092 79.216 79.902 L 88.932 69.713 87.034 67.106 C 85.990 65.673, 78.236 57.636, 69.803 49.247 L 54.470 33.994 44.216 44.283 M 122.737 51.763 C 113.532 60.980, 106 68.974, 106 69.527 C 106 70.080, 111.068 75.587, 117.263 81.764 L 128.526 92.995 145.766 75.735 L 163.005 58.474 151.240 46.739 L 139.474 35.004 122.737 51.763 M 291.426 67.500 C 291.427 79.600, 291.571 84.413, 291.747 78.195 C 291.923 71.977, 291.922 62.077, 291.746 56.195 C 291.569 50.313, 291.425 55.400, 291.426 67.500 M 854.464 117.500 C 854.464 145.550, 854.592 157.169, 854.749 143.320 C 854.906 129.471, 854.906 106.521, 854.749 92.320 C 854.593 78.119, 854.465 89.450, 854.464 117.500 M 91.297 83.782 C 85.564 88.980, 79 96.649, 79 98.149 C 79 100.103, 98.311 119, 100.307 119 C 102.693 119, 119 102.856, 119 100.494 C 119 98.577, 99.647 78.987, 97.799 79.032 C 97.084 79.049, 94.159 81.187, 91.297 83.782 M 354.336 96 C 354.336 100.125, 354.513 101.813, 354.728 99.750 C 354.944 97.688, 354.944 94.313, 354.728 92.250 C 354.513 90.188, 354.336 91.875, 354.336 96 M 144.200 93.200 C 141.975 95.425, 142.976 96.001, 148.750 95.815 L 154.500 95.630 149.173 95.260 C 144.663 94.947, 144.030 94.669, 145.046 93.445 C 146.495 91.699, 145.879 91.521, 144.200 93.200 M 291.436 128.500 C 291.436 142.800, 291.577 148.511, 291.748 141.191 C 291.919 133.871, 291.918 122.171, 291.747 115.191 C 291.575 108.211, 291.435 114.200, 291.436 128.500 M 52.074 122.426 L 35.671 138.851 47.022 150.979 L 58.372 163.107 75.186 146.314 C 84.434 137.079, 92 129.174, 92 128.748 C 92 127.874, 69.928 106, 69.046 106 C 68.733 106, 61.096 113.392, 52.074 122.426 M 118.499 119.051 L 108.624 129.103 126.048 146.548 L 143.472 163.994 153.740 153.761 L 164.007 143.528 146.764 126.264 C 137.281 116.769, 129.263 109, 128.948 109 C 128.632 109, 123.931 113.523, 118.499 119.051 M 623.310 116.500 C 623.315 119.800, 623.502 121.029, 623.725 119.232 C 623.947 117.435, 623.943 114.735, 623.715 113.232 C 623.486 111.729, 623.304 113.200, 623.310 116.500 M 823.328 161.500 C 823.333 165.350, 823.513 166.802, 823.730 164.728 C 823.946 162.653, 823.943 159.503, 823.722 157.728 C 823.501 155.952, 823.324 157.650, 823.328 161.500"
    stroke="none"
    fill="#509fdd"
    fill-rule="evenodd"
  />
  <path
    d="M 91.424 4.903 C 80.450 7.661, 74 16.184, 74 27.928 C 74 34.009, 76.905 39.498, 83.568 46.005 L 89.194 51.500 88.506 46.269 C 86.729 32.762, 93.321 24.392, 100.076 31.580 C 102.183 33.823, 102.545 35.293, 102.842 42.830 C 103.030 47.598, 103.635 51.950, 104.187 52.500 C 105.776 54.085, 118.792 39.385, 120.125 34.500 C 123.114 23.539, 116.928 10.800, 106.500 6.444 C 102.365 4.716, 95.116 3.975, 91.424 4.903 M 533.460 27.250 C 533.197 27.938, 533.102 60, 533.248 98.500 L 533.514 168.500 533.757 97.794 L 534 27.088 541.250 26.743 L 548.500 26.397 541.219 26.199 C 536.160 26.061, 533.791 26.382, 533.460 27.250 M 749.459 27.250 C 749.197 27.938, 749.102 57.300, 749.248 92.500 L 749.515 156.500 749.758 91.794 L 750 27.088 757.250 26.743 L 764.500 26.397 757.219 26.199 C 752.161 26.061, 749.791 26.382, 749.459 27.250 M 797.250 26.728 C 799.313 26.944, 802.688 26.944, 804.750 26.728 C 806.813 26.513, 805.125 26.336, 801 26.336 C 796.875 26.336, 795.188 26.513, 797.250 26.728 M 977.734 26.718 L 984.969 27.087 985.259 54.793 L 985.549 82.500 985.525 54.500 L 985.500 26.500 978 26.424 L 970.500 26.349 977.734 26.718 M 274.473 100 C 274.473 137.675, 274.597 153.087, 274.750 134.250 C 274.902 115.412, 274.902 84.587, 274.750 65.750 C 274.597 46.912, 274.473 62.325, 274.473 100 M 392.349 75 C 392.349 79.675, 392.522 81.587, 392.732 79.250 C 392.943 76.912, 392.943 73.087, 392.732 70.750 C 392.522 68.412, 392.349 70.325, 392.349 75 M 838.464 117.500 C 838.464 145.550, 838.592 157.169, 838.749 143.320 C 838.906 129.471, 838.906 106.521, 838.749 92.320 C 838.593 78.119, 838.465 89.450, 838.464 117.500 M 19.500 74.504 C 17.266 75.296, 13.452 78.062, 10.860 80.770 C 7.162 84.636, 5.988 86.743, 5.072 91.156 C 3.017 101.053, 6.673 110.269, 15.041 116.284 C 21.903 121.216, 33.026 121.834, 39.430 117.638 C 43.016 115.288, 55 103.933, 55 102.885 C 55 102.398, 51.962 101.980, 48.250 101.956 C 34.769 101.869, 28.045 98.866, 29.564 93.611 C 30.844 89.182, 33.639 88, 42.827 88 L 51.432 88 45.966 82.386 C 37.255 73.440, 29.244 71.054, 19.500 74.504 M 158.946 80.879 C 156.501 82.463, 152.096 86.231, 149.158 89.253 L 143.817 94.748 153.633 95.484 C 164.926 96.331, 167.434 97.074, 169.023 100.043 C 170.554 102.904, 168.722 107.350, 165.385 108.870 C 164.022 109.492, 159.440 110.016, 155.203 110.036 L 147.500 110.073 153.454 115.683 C 163.984 125.605, 172.332 127.222, 182.985 121.403 C 195.416 114.614, 197.533 95.868, 187.136 84.658 C 182.734 79.913, 177.878 78, 170.236 78 C 164.391 78, 162.742 78.420, 158.946 80.879 M 516.448 135 C 516.448 153.425, 516.583 160.963, 516.748 151.750 C 516.913 142.537, 516.913 127.463, 516.748 118.250 C 516.583 109.037, 516.448 116.575, 516.448 135 M 439.446 136.500 C 439.447 154.100, 439.583 161.159, 439.749 152.187 C 439.914 143.215, 439.914 128.815, 439.748 120.187 C 439.581 111.559, 439.446 118.900, 439.446 136.500 M 393.443 138.500 C 393.443 155, 393.580 161.890, 393.748 153.812 C 393.915 145.733, 393.916 132.233, 393.748 123.812 C 393.581 115.390, 393.444 122, 393.443 138.500 M 985.442 139 C 985.442 155.225, 985.580 161.862, 985.748 153.750 C 985.916 145.637, 985.916 132.362, 985.748 124.250 C 985.580 116.137, 985.442 122.775, 985.442 139 M 548.310 116.500 C 548.315 119.800, 548.502 121.029, 548.725 119.232 C 548.947 117.435, 548.943 114.735, 548.715 113.232 C 548.486 111.729, 548.304 113.200, 548.310 116.500 M 87.142 151.357 C 79.394 159.157, 78.071 162.015, 78.024 171.054 C 77.962 182.778, 89.211 194, 101.025 194 C 109.245 194, 113.690 192.120, 118.871 186.451 C 123.764 181.097, 125 177.981, 125 171 C 125 163.433, 123.829 160.836, 117.377 154.094 L 111.067 147.500 111.033 154.282 C 110.989 163.307, 109.166 167.585, 104.972 168.506 C 102.313 169.090, 101.314 168.768, 99.189 166.643 C 96.878 164.333, 96.578 163.138, 96.204 154.787 C 95.975 149.679, 95.481 145.168, 95.106 144.763 C 94.732 144.357, 91.148 147.324, 87.142 151.357 M 364.336 161 C 364.336 165.125, 364.513 166.813, 364.728 164.750 C 364.944 162.688, 364.944 159.313, 364.728 157.250 C 364.513 155.188, 364.336 156.875, 364.336 161 M 779.328 161.500 C 779.333 165.350, 779.513 166.802, 779.730 164.728 C 779.946 162.653, 779.943 159.503, 779.722 157.728 C 779.501 155.952, 779.324 157.650, 779.328 161.500"
    stroke="none"
    fill="#415db4"
    fill-rule="evenodd"
  />
  <path
    d="M 839.898 25.270 C 835.341 28.314, 832.753 33.492, 833.552 37.966 C 834.896 45.485, 840.653 49.712, 848.175 48.703 C 860.479 47.053, 862.931 29.212, 851.510 24.440 C 846.705 22.432, 843.839 22.637, 839.898 25.270 M 534 97.546 L 534 168.091 540.750 167.796 L 547.500 167.500 548 159 L 548.500 150.500 550.185 153.575 C 552.566 157.919, 559.374 163.803, 564.624 166.053 C 580.604 172.903, 596.981 170.098, 608.593 158.522 C 627.462 139.711, 627.902 96.679, 609.436 76.140 C 594.347 59.357, 564.871 60.391, 552.004 78.154 L 549 82.300 549 54.650 L 549 27 541.500 27 L 534 27 534 97.546 M 750 92.923 L 750 158.847 752.703 162.059 C 756.557 166.640, 760.625 168, 770.468 168 L 779 168 779 161.500 L 779 155 773.200 155 C 770.010 155, 766.860 154.460, 766.200 153.800 C 765.292 152.892, 765 137.311, 765 89.800 L 765 27 757.500 27 L 750 27 750 92.923 M 793.222 92.750 C 793.535 166.887, 792.975 161.873, 801.399 165.951 C 804.669 167.534, 807.606 168, 814.316 168 L 823 168 823 161.546 L 823 155.091 816.250 154.796 L 809.500 154.500 809.243 90.750 L 808.985 27 800.965 27 L 792.945 27 793.222 92.750 M 970 97.500 L 970 168 977.500 168 L 985 168 985.020 140.250 C 985.043 108.221, 985.811 100.979, 990.122 92.151 C 995.011 82.140, 1003.181 77.196, 1015 77.098 C 1026.561 77.002, 1032.169 81.082, 1035.388 91.932 C 1036.738 96.479, 1037 103.113, 1037 132.682 L 1037 168 1045 168 L 1053 168 1052.973 137.750 C 1052.931 91.514, 1051.670 84.107, 1042.067 73.688 C 1035.863 66.958, 1029.599 64.577, 1017.979 64.535 C 1009.197 64.503, 1007.939 64.756, 1001.772 67.791 C 997.199 70.043, 993.492 72.871, 990.043 76.741 L 985 82.399 985 54.700 L 985 27 977.500 27 L 970 27 970 97.500 M 275 100 L 275 168 319.500 168 L 364 168 364 161 L 364 154 327.500 154 L 291 154 291 128.500 L 291 103 322.500 103 L 354 103 354 96 L 354 89 322.500 89 L 291 89 291 67.500 L 291 46 327 46 L 363 46 363 39 L 363 32 319 32 L 275 32 275 100 M 415.734 65.027 C 407.677 67.056, 400.180 72.469, 394.306 80.500 L 392.111 83.500 392.056 74.704 L 392 65.909 385.250 66.204 L 378.500 66.500 378.241 117.250 L 377.982 168 385.407 168 L 392.832 168 393.241 135.750 C 393.693 100.138, 394.071 97.582, 400.259 88.378 C 402.092 85.652, 405.638 82.242, 408.421 80.529 C 412.712 77.888, 414.271 77.500, 420.594 77.500 C 429.270 77.500, 432.312 79.237, 435.799 86.184 C 439.080 92.719, 439.962 103.696, 439.982 138.250 L 440 168 447.500 168 L 455 168 455 137.549 C 455 105.417, 455.557 99.860, 459.577 91.877 C 466.845 77.445, 485.598 72.244, 494.702 82.135 C 500.322 88.239, 500.474 89.437, 500.815 130.250 L 501.130 168 508.618 168 L 516.107 168 515.781 128.750 C 515.480 92.529, 515.304 89.131, 513.498 84.714 C 510.270 76.816, 505.098 70.870, 498.539 67.518 C 493.374 64.877, 491.627 64.506, 484.568 64.549 C 478.558 64.586, 475.297 65.141, 471.783 66.728 C 466.420 69.150, 458.030 76.597, 454.829 81.777 L 452.672 85.268 450.331 80.663 C 447.298 74.693, 441.782 69.234, 436.366 66.838 C 431.277 64.587, 421.047 63.689, 415.734 65.027 M 675.045 65.030 C 667.954 66.520, 659.910 70.974, 654.435 76.442 C 635.330 95.524, 635.050 137.545, 653.900 156.897 C 670.761 174.207, 703.804 173.935, 720.149 156.350 C 722.892 153.399, 729 144.131, 729 142.920 C 729 142.227, 714.929 136.700, 714.490 137.220 C 714.360 137.374, 713.455 139.075, 712.479 141 C 707.554 150.710, 699.986 155.910, 689.564 156.747 C 671.875 158.167, 659.391 146.604, 657.331 126.891 L 656.715 121 693.799 121 C 714.194 121, 731.064 120.662, 731.286 120.250 C 731.509 119.838, 731.340 115.450, 730.910 110.500 C 728.946 87.858, 719.064 72.781, 702.275 66.814 C 695.694 64.475, 681.967 63.575, 675.045 65.030 M 902.043 65.139 C 889.142 67.277, 879.284 74.774, 876.421 84.624 C 873.116 95.994, 876.719 106.976, 885.709 112.931 C 891.137 116.526, 895.781 118.016, 912.113 121.400 C 925.192 124.111, 928.621 125.573, 932.381 130.041 C 934.438 132.486, 935 134.221, 935 138.126 C 935 144.062, 933.324 147.631, 928.578 151.797 C 924.399 155.467, 919.529 156.987, 911.928 156.994 C 899.388 157.007, 890.328 150.747, 887.342 140.006 C 886.423 136.703, 885.183 134.028, 884.586 134.062 C 883.989 134.096, 880.575 134.690, 877 135.383 C 870.646 136.615, 870.507 136.709, 870.817 139.572 C 870.992 141.182, 872.288 145.080, 873.697 148.234 C 880.554 163.582, 899.667 172.205, 920.195 169.213 C 940.130 166.307, 951.355 154.882, 951.351 137.500 C 951.348 129.089, 949.639 124.872, 944.153 119.739 C 938.502 114.454, 932.229 111.922, 916.203 108.457 C 896.566 104.211, 891 100.466, 891 91.500 C 891 83.087, 897.593 77.979, 909.423 77.228 C 922.393 76.404, 929.168 80.075, 932.621 89.795 C 933.763 93.011, 935.048 94.987, 935.985 94.965 C 938.207 94.913, 950.027 92.307, 950.589 91.744 C 950.854 91.480, 950.151 88.806, 949.027 85.802 C 942.942 69.539, 924.479 61.419, 902.043 65.139 M 839 116.956 L 839 168 846.509 168 L 854.018 168 853.759 117.250 L 853.500 66.500 846.250 66.206 L 839 65.912 839 116.956 M 566.500 79.387 C 556.655 84.049, 550.833 93.495, 548.885 107.964 C 544.602 139.792, 562.091 162.702, 585.384 155.776 C 591.573 153.936, 600.182 145.010, 603.012 137.500 C 607.315 126.077, 606.842 104.796, 602.036 93.583 C 595.972 79.438, 579.928 73.028, 566.500 79.387 M 674.444 79.374 C 665.975 83.317, 659.705 92.572, 657.589 104.250 L 656.909 108 684.955 108 L 713 108 713 105.605 C 713 104.288, 712.061 100.170, 710.913 96.453 C 705.927 80.311, 689.227 72.490, 674.444 79.374"
    stroke="none"
    fill="#c2d8e5"
    fill-rule="evenodd"
  />
</svg>