<svg xmlns="http://www.w3.org/2000/svg" width="735" height="147" viewBox="0 0 735 147" version="1.1">
  <defs>
    <linearGradient id="gradient">
      <stop stop-color="#cb0f9d" offset="0" />
      <stop stop-color="#f44344" stop-opacity="1" offset="24%" />
    </linearGradient>
  </defs>
  <path d="M 718.250 0.739 C 721.413 0.937, 726.587 0.937, 729.750 0.739 C 732.913 0.541, 730.325 0.378, 724 0.378 C 717.675 0.378, 715.087 0.541, 718.250 0.739 M 576.383 18.583 C 566.346 23.535, 571.958 38.925, 582.922 36.517 C 586.911 35.641, 590 31.618, 590 27.299 C 590 22.821, 588.609 20.366, 585.020 18.510 C 581.401 16.639, 580.305 16.648, 576.383 18.583 M 508 68.550 L 508 117.099 509.517 120.033 C 511.738 124.327, 515.784 126, 523.950 126 L 531 126 531 121.052 L 531 116.105 525.750 115.802 L 520.500 115.500 520.240 67.750 L 519.981 20 513.990 20 L 508 20 508 68.550 M 541 69.277 L 541 118.555 542.561 120.783 C 545.094 124.400, 549.355 126, 556.450 126 L 563 126 563 121 L 563 116 558 116 L 553 116 553 68 L 553 20 547 20 L 541 20 541 69.277 M 667 73 L 667 126 673 126 L 679 126 679 102.115 C 679 82.544, 679.301 77.297, 680.668 73.064 C 685.926 56.783, 707.821 52.221, 714.750 65.962 L 717 70.424 717 98.212 L 717 126 723.068 126 L 729.135 126 728.818 96.750 L 728.500 67.500 726.386 62.930 C 721.618 52.624, 711.561 47.074, 700.087 48.417 C 692.703 49.281, 686.793 52.256, 682.503 57.268 L 679 61.360 679 40.680 L 679 20 673 20 L 667 20 667 73 M 355 73.500 L 355 126 360.500 126 L 366 126 366 119.806 L 366 113.611 368.527 117.036 C 379.450 131.842, 404.090 131.105, 414.662 115.658 C 424.511 101.268, 424.655 75.390, 414.967 60.764 C 405.067 45.818, 382.410 43.949, 370.529 57.099 L 367 61.006 367 41.003 L 367 21 361 21 L 355 21 355 73.500 M 168 75 L 168 126 201.500 126 L 235 126 235 121 L 235 116 207.500 116 L 180 116 180 96.500 L 180 77 203.500 77 L 227 77 227 72 L 227 67 203.500 67 L 180 67 180 50.500 L 180 34 207 34 L 234 34 234 29 L 234 24 201 24 L 168 24 168 75 M 269.420 49.411 C 264.202 51.045, 259.405 54.566, 256.383 58.982 L 254 62.464 254 56.232 L 254 50 248.500 50 L 243 50 243 88 L 243 126 249 126 L 255 126 255 102.159 C 255 76.207, 255.664 71.751, 260.474 65.446 C 265.520 58.829, 275.378 56.076, 281.915 59.456 C 283.463 60.257, 285.578 62.619, 286.615 64.706 L 288.500 68.500 288.806 97.250 L 289.113 126 294.982 126 L 300.851 126 301.175 100.250 L 301.500 74.500 303.867 70 C 306.979 64.082, 308.743 62.174, 313.210 59.894 C 317.411 57.750, 323.662 57.433, 327.478 59.172 C 328.892 59.816, 331.051 61.954, 332.275 63.922 L 334.500 67.500 334.806 96.750 L 335.111 126 341.123 126 L 347.135 126 346.818 96.750 L 346.500 67.500 344.130 62.258 C 340.108 53.361, 332.346 48.022, 323.409 48.006 C 315.385 47.991, 305.969 53.077, 301.934 59.607 C 299.722 63.186, 298 64.013, 298 61.497 C 298 60.670, 295.863 57.790, 293.250 55.097 C 286.603 48.244, 278.967 46.422, 269.420 49.411 M 455.929 49.304 C 441.629 53.358, 433.251 63.860, 430.915 80.657 C 428.209 100.113, 435.829 117.946, 449.653 124.506 C 462.112 130.418, 479.879 128.025, 489.339 119.160 C 493.102 115.635, 497.502 108.080, 496.384 107.067 C 495.898 106.626, 493.400 105.571, 490.834 104.722 L 486.169 103.179 485.017 105.958 C 484.384 107.487, 482.434 110.124, 480.683 111.818 C 470.329 121.839, 453.333 119.406, 447.026 107 C 445.474 103.949, 443 94.699, 443 91.951 C 443 91.372, 454.019 91, 471.143 91 L 499.286 91 498.740 83.250 C 498.103 74.222, 495.153 65.671, 490.622 59.718 C 483.869 50.847, 467.654 45.979, 455.929 49.304 M 622 48.635 C 616.171 49.741, 609.727 52.358, 606.827 54.799 C 600.777 59.890, 598.311 70.022, 601.351 77.298 C 604.352 84.479, 611.689 88.485, 627.246 91.434 C 641.189 94.077, 645.800 97.996, 644.692 106.261 C 643.707 113.606, 637.247 118, 627.433 118 C 617.915 118, 611.219 113.242, 608.967 104.877 L 607.881 100.844 603.690 101.495 C 596.298 102.644, 595.933 102.867, 596.625 105.818 C 597.724 110.499, 602.339 118.157, 605.529 120.590 C 612.294 125.750, 617.866 127.451, 628 127.451 C 635.759 127.451, 638.416 127.033, 642.500 125.172 C 652.398 120.660, 657 113.901, 657 103.878 C 657 91.268, 651.201 86.339, 630.733 81.552 C 614.921 77.854, 612 75.897, 612 69 C 612 64.418, 613.643 62.065, 618.331 59.937 C 629.109 55.043, 641.421 59.535, 643.529 69.131 C 644.075 71.617, 644.586 72.071, 646.348 71.632 C 647.532 71.337, 650.413 70.792, 652.750 70.420 C 657.527 69.661, 657.707 69.136, 655.121 63.500 C 652.659 58.133, 648.537 54.180, 642.500 51.399 C 637.537 49.113, 626.984 47.690, 622 48.635 M 575 88 L 575 126 581 126 L 587 126 587 88 L 587 50 581 50 L 575 50 575 88 M 379 60.245 C 369.584 65.273, 364.693 78.964, 366.855 94.247 C 367.468 98.585, 368.728 103.732, 369.654 105.683 C 371.916 110.450, 377.437 115.659, 381.728 117.075 C 386.787 118.745, 394.286 117.738, 398.739 114.791 C 413.151 105.254, 413.109 70.718, 398.673 61.165 C 393.040 57.437, 384.966 57.060, 379 60.245 M 457.007 59.593 C 450.290 62.506, 445.692 68.820, 444.399 76.908 L 443.744 81 464.372 81 L 485 81 485 78.866 C 485 71.842, 478.600 61.984, 472.343 59.370 C 468.082 57.589, 461.403 57.687, 457.007 59.593" stroke="none" fill="#ffffff" fill-rule="evenodd"/>
  <path d="M 37.998 40.502 L 4.507 74.004 38.254 107.750 L 72 141.496 105.746 107.750 L 139.493 74.004 106.002 40.502 C 87.582 22.076, 72.281 7, 72 7 C 71.719 7, 56.418 22.076, 37.998 40.502 M 357.750 20.723 C 359.538 20.945, 362.462 20.945, 364.250 20.723 C 366.038 20.502, 364.575 20.320, 361 20.320 C 357.425 20.320, 355.962 20.502, 357.750 20.723 M 46.515 48.662 L 21.529 74.014 46.515 99.219 C 60.257 113.082, 71.631 124.647, 71.790 124.919 C 71.950 125.192, 83.648 113.847, 97.786 99.710 L 123.490 74.005 98.002 48.502 C 83.984 34.476, 72.286 23.069, 72.007 23.154 C 71.728 23.239, 60.257 34.717, 46.515 48.662 M 167.465 75 C 167.465 103.325, 167.593 114.913, 167.749 100.750 C 167.906 86.588, 167.906 63.413, 167.749 49.250 C 167.593 35.088, 167.465 46.675, 167.465 75 M 193.250 34.748 C 200.813 34.917, 213.188 34.917, 220.750 34.748 C 228.313 34.578, 222.125 34.439, 207 34.439 C 191.875 34.439, 185.688 34.578, 193.250 34.748 M 64.208 39.288 L 60 43.576 60 74 L 60 104.424 64.208 108.712 C 66.523 111.070, 68.678 113, 68.997 113 C 69.316 113, 69.577 95.450, 69.577 74 C 69.577 52.550, 69.316 35, 68.997 35 C 68.678 35, 66.523 36.930, 64.208 39.288 M 74.392 38.250 L 74.550 41.500 77.775 41.813 C 81.736 42.198, 81.840 41.179, 78.195 37.687 C 74.604 34.246, 74.200 34.306, 74.392 38.250 M 74.518 51 C 74.606 53.200, 74.751 55.450, 74.839 56 C 75.022 57.136, 96 57.421, 96 56.288 C 96 55.896, 94.106 53.646, 91.792 51.288 L 87.584 47 80.970 47 L 74.357 47 74.518 51 M 49.208 54.288 L 45 58.576 45 74 L 45 89.424 49.208 93.712 C 51.523 96.070, 53.773 98, 54.208 98 C 54.644 98, 55 87.200, 55 74 C 55 60.800, 54.644 50, 54.208 50 C 53.773 50, 51.523 51.930, 49.208 54.288 M 74.680 62.750 C 74.439 63.163, 74.329 65.300, 74.435 67.500 L 74.627 71.500 92.813 71.560 C 102.816 71.593, 111 71.349, 111 71.018 C 111 70.687, 109.070 68.523, 106.712 66.208 L 102.424 62 88.771 62 C 81.262 62, 74.921 62.337, 74.680 62.750 M 34.487 69.013 L 29.550 74.026 34.775 79.251 L 40 84.476 40 74.238 C 40 68.607, 39.871 64, 39.712 64 C 39.554 64, 37.203 66.256, 34.487 69.013 M 203.448 66.740 L 226.897 67.036 227.276 71.768 L 227.656 76.500 227.578 71.500 L 227.500 66.500 203.749 66.472 L 179.999 66.445 203.448 66.740 M 74.634 76.972 C 74.519 77.262, 74.442 79.300, 74.462 81.500 L 74.500 85.500 88.432 85.779 L 102.364 86.059 106.682 81.821 C 109.057 79.491, 111 77.317, 111 76.991 C 111 76.258, 74.925 76.239, 74.634 76.972 M 366.286 87.500 C 366.294 90.250, 366.488 91.256, 366.718 89.736 C 366.947 88.216, 366.941 85.966, 366.704 84.736 C 366.467 83.506, 366.279 84.750, 366.286 87.500 M 409.272 88 C 409.272 90.475, 409.467 91.487, 409.706 90.250 C 409.944 89.013, 409.944 86.987, 409.706 85.750 C 409.467 84.513, 409.272 85.525, 409.272 88 M 74.839 92 C 74.751 92.550, 74.606 94.800, 74.518 97 L 74.357 101 80.891 101 L 87.424 101 91.712 96.792 C 94.070 94.477, 96 92.227, 96 91.792 C 96 90.606, 75.030 90.813, 74.839 92 M 74.890 106.250 C 74.358 107.465, 74.390 113, 74.930 113 C 75.819 113, 81 107.618, 81 106.695 C 81 106.071, 75.156 105.645, 74.890 106.250 M 193.811 115.748 C 201.681 115.917, 214.281 115.917, 221.811 115.747 C 229.340 115.578, 222.900 115.439, 207.500 115.440 C 192.100 115.440, 185.940 115.579, 193.811 115.748 M 563.300 121 C 563.300 124.025, 563.487 125.263, 563.716 123.750 C 563.945 122.237, 563.945 119.763, 563.716 118.250 C 563.487 116.737, 563.300 117.975, 563.300 121" stroke="none" fill="url(#gradient)" fill-rule="evenodd" />
</svg>